<svg data-v-fde0c5aa="" xmlns="http://www.w3.org/2000/svg" viewBox="0 0 300 300" class="iconLeft"><!----><defs data-v-fde0c5aa=""><!----></defs><rect data-v-fde0c5aa="" fill="#3CCEFC" x="0" y="0" width="300px" height="300px" class="logo-background-square"></rect><defs data-v-fde0c5aa=""><!----></defs><g data-v-fde0c5aa="" id="ba631399-4935-42bb-9e82-08d29026aa22" fill="#5D5959" transform="matrix(2.322192907333374,0,0,2.322192907333374,110.05527176677639,130.32939242748063)"><path d="M8.01 3.78L8.01 4.83L4.79 4.83L4.79 13.02L3.67 13.02L3.67 4.83L0.45 4.83L0.45 3.78L8.01 3.78ZM13.79 6.02L14.91 6.02L14.91 13.02L13.93 13.02L13.86 11.96L13.86 11.96Q13.16 13.16 11.35 13.16L11.35 13.16L11.35 13.16Q10.22 13.16 9.50 12.53L9.50 12.53L9.50 12.53Q8.78 11.90 8.78 10.60L8.78 10.60L8.78 6.02L9.90 6.02L9.90 10.30L9.90 10.30Q9.90 11.33 10.32 11.75L10.32 11.75L10.32 11.75Q10.74 12.18 11.55 12.18L11.55 12.18L11.55 12.18Q12.52 12.18 13.15 11.59L13.15 11.59L13.15 11.59Q13.79 11.00 13.79 9.83L13.79 9.83L13.79 6.02ZM21.41 11.59L21.80 12.53L21.80 12.53Q21.10 13.16 19.99 13.16L19.99 13.16L19.99 13.16Q19.14 13.16 18.60 12.70L18.60 12.70L18.60 12.70Q18.06 12.24 18.05 11.28L18.05 11.28L18.05 6.99L16.65 6.99L16.65 6.02L18.05 6.02L18.05 4.34L19.17 4.03L19.17 6.02L21.76 6.02L21.76 6.99L19.17 6.99L19.17 11.09L19.17 11.09Q19.17 11.59 19.45 11.85L19.45 11.85L19.45 11.85Q19.74 12.11 20.22 12.11L20.22 12.11L20.22 12.11Q20.89 12.11 21.41 11.59L21.41 11.59ZM26.33 5.88L26.33 5.88Q27.92 5.88 28.82 6.85L28.82 6.85L28.82 6.85Q29.72 7.81 29.72 9.52L29.72 9.52L29.72 9.52Q29.72 11.23 28.82 12.19L28.82 12.19L28.82 12.19Q27.92 13.16 26.33 13.16L26.33 13.16L26.33 13.16Q24.75 13.16 23.85 12.19L23.85 12.19L23.85 12.19Q22.95 11.23 22.95 9.52L22.95 9.52L22.95 9.52Q22.95 7.81 23.85 6.85L23.85 6.85L23.85 6.85Q24.75 5.88 26.33 5.88L26.33 5.88ZM26.33 6.85L26.33 6.85Q25.27 6.85 24.67 7.56L24.67 7.56L24.67 7.56Q24.07 8.27 24.07 9.52L24.07 9.52L24.07 9.52Q24.07 10.77 24.67 11.48L24.67 11.48L24.67 11.48Q25.27 12.19 26.33 12.19L26.33 12.19L26.33 12.19Q27.40 12.19 28 11.48L28 11.48L28 11.48Q28.60 10.77 28.60 9.52L28.60 9.52L28.60 9.52Q28.60 8.27 28 7.56L28 7.56L28 7.56Q27.40 6.85 26.33 6.85L26.33 6.85ZM35.20 5.88L35.20 5.88Q35.70 5.88 35.97 6.02L35.97 6.02L35.74 7.11L35.74 7.11Q35.41 6.93 34.86 6.93L34.86 6.93L34.86 6.93Q34.41 6.93 33.98 7.19L33.98 7.19L33.98 7.19Q33.56 7.45 33.28 7.97L33.28 7.97L33.28 7.97Q33.01 8.50 33.01 9.24L33.01 9.24L33.01 13.02L31.89 13.02L31.89 6.02L32.80 6.02L32.96 7.17L32.96 7.17Q33.54 5.88 35.20 5.88L35.20 5.88ZM45.74 5.88L45.74 5.88Q46.44 5.88 47.05 6.17L47.05 6.17L47.05 6.17Q47.66 6.45 48.03 7.06L48.03 7.06L48.03 7.06Q48.41 7.66 48.41 8.54L48.41 8.54L48.41 13.02L47.29 13.02L47.29 8.65L47.29 8.65Q47.29 7.74 46.84 7.30L46.84 7.30L46.84 7.30Q46.38 6.86 45.64 6.86L45.64 6.86L45.64 6.86Q45.08 6.86 44.61 7.13L44.61 7.13L44.61 7.13Q44.14 7.41 43.85 7.93L43.85 7.93L43.85 7.93Q43.57 8.46 43.57 9.18L43.57 9.18L43.57 13.02L42.45 13.02L42.45 8.65L42.45 8.65Q42.45 7.74 41.99 7.30L41.99 7.30L41.99 7.30Q41.54 6.86 40.80 6.86L40.80 6.86L40.80 6.86Q40.29 6.86 39.82 7.12L39.82 7.12L39.82 7.12Q39.34 7.38 39.03 7.92L39.03 7.92L39.03 7.92Q38.72 8.47 38.72 9.28L38.72 9.28L38.72 13.02L37.60 13.02L37.60 6.02L38.58 6.02L38.65 7.11L38.65 7.11Q39.02 6.50 39.61 6.19L39.61 6.19L39.61 6.19Q40.21 5.88 40.89 5.88L40.89 5.88L40.89 5.88Q41.66 5.88 42.31 6.23L42.31 6.23L42.31 6.23Q42.97 6.58 43.30 7.25L43.30 7.25L43.30 7.25Q43.61 6.58 44.31 6.23L44.31 6.23L44.31 6.23Q45.01 5.88 45.74 5.88L45.74 5.88ZM56.69 12.21L56.69 12.21Q56.97 12.21 57.25 12.14L57.25 12.14L57.18 13.02L57.18 13.02Q56.78 13.16 56.34 13.16L56.34 13.16L56.34 13.16Q55.79 13.16 55.48 12.92L55.48 12.92L55.48 12.92Q55.16 12.68 55.08 12.12L55.08 12.12L55.08 12.12Q54.75 12.61 54.13 12.89L54.13 12.89L54.13 12.89Q53.51 13.16 52.82 13.16L52.82 13.16L52.82 13.16Q51.79 13.16 51.11 12.68L51.11 12.68L51.11 12.68Q50.44 12.19 50.44 11.28L50.44 11.28L50.44 11.28Q50.44 10.49 51.14 9.90L51.14 9.90L51.14 9.90Q51.84 9.32 53.17 9.10L53.17 9.10L55.03 8.79L55.03 8.40L55.03 8.40Q55.03 7.70 54.60 7.28L54.60 7.28L54.60 7.28Q54.17 6.86 53.40 6.86L53.40 6.86L53.40 6.86Q52.70 6.86 52.18 7.20L52.18 7.20L52.18 7.20Q51.67 7.53 51.39 8.19L51.39 8.19L50.57 7.59L50.57 7.59Q50.85 6.80 51.61 6.34L51.61 6.34L51.61 6.34Q52.37 5.88 53.40 5.88L53.40 5.88L53.40 5.88Q54.64 5.88 55.40 6.48L55.40 6.48L55.40 6.48Q56.15 7.08 56.15 8.26L56.15 8.26L56.15 11.70L56.15 11.70Q56.15 11.96 56.28 12.08L56.28 12.08L56.28 12.08Q56.41 12.21 56.69 12.21L56.69 12.21ZM52.88 12.18L52.88 12.18Q53.76 12.18 54.40 11.76L54.40 11.76L54.40 11.76Q55.03 11.34 55.03 10.67L55.03 10.67L55.03 9.70L53.47 10.00L53.47 10.00Q52.53 10.16 52.07 10.48L52.07 10.48L52.07 10.48Q51.60 10.79 51.60 11.28L51.60 11.28L51.60 11.28Q51.60 11.72 51.94 11.95L51.94 11.95L51.94 11.95Q52.28 12.18 52.88 12.18L52.88 12.18ZM64.57 13.02L63.20 13.02L61.26 10.32L59.28 13.02L57.97 13.02L60.66 9.49L58.14 6.02L59.54 6.02L61.39 8.61L63.21 6.02L64.53 6.02L61.99 9.45L64.57 13.02Z"></path></g><defs data-v-fde0c5aa=""><!----></defs><g data-v-fde0c5aa="" id="3b13dc62-3ea5-4d4f-b17e-bc940fa12d6a" stroke="none" fill="#EBC246" transform="matrix(0.604945957660675,0,0,0.604945957660675,38.80192339890713,119.75151966017886)"><path style="text-indent:0;text-transform:none;block-progression:tb" d="M49.875 23.002a3 3 0 0 0-.938.187l-45 17a3 3 0 0 0 0 5.625L9 47.72v9.625c-.624.706-1 1.641-1 2.657a4 4 0 0 0 8 0c0-1.016-.377-1.951-1-2.657v-7.343l4 1.5v12.5c0 2.538 1.549 4.272 3.313 5.687 1.763 1.415 4.046 2.62 6.78 3.688 5.47 2.136 12.776 3.625 20.907 3.625 8.13 0 15.436-1.489 20.906-3.625 2.735-1.069 5.018-2.273 6.781-3.688C79.451 68.274 81 66.54 81 64.002v-12.5l15.063-5.688a3 3 0 0 0 0-5.625l-45-17a3 3 0 0 0-1.188-.187zM50 29.22l36.5 13.782L50 56.782l-36.5-13.78L50 29.22zM25 53.783l23.938 9.031a3 3 0 0 0 2.124 0L75 53.783v10.219c0-.445 0 .147-1.063 1-1.062.852-2.892 1.872-5.218 2.78C64.067 69.6 57.38 71.003 50 71.003c-7.381 0-14.067-1.402-18.719-3.22-2.326-.908-4.156-1.928-5.219-2.78C25 64.149 25 63.557 25 64.002v-10.22z" overflow="visible" color="#000"></path></g><!----></svg>