<svg data-v-423bf9ae="" xmlns="http://www.w3.org/2000/svg" viewBox="0 0 580 90" class="iconLeft"><!----><!----><!----><g data-v-423bf9ae="" id="f60bf6a9-d774-4b28-aff2-da828b68e8a1" fill="black" transform="matrix(6.397334575653076,0,0,6.397334575653076,177.1797332763672,-9.189922332763672)"><path d="M8.01 3.78L8.01 4.83L4.79 4.83L4.79 13.02L3.67 13.02L3.67 4.83L0.45 4.83L0.45 3.78L8.01 3.78ZM13.79 6.02L14.91 6.02L14.91 13.02L13.93 13.02L13.86 11.96L13.86 11.96Q13.16 13.16 11.35 13.16L11.35 13.16L11.35 13.16Q10.22 13.16 9.50 12.53L9.50 12.53L9.50 12.53Q8.78 11.90 8.78 10.60L8.78 10.60L8.78 6.02L9.90 6.02L9.90 10.30L9.90 10.30Q9.90 11.33 10.32 11.75L10.32 11.75L10.32 11.75Q10.74 12.18 11.55 12.18L11.55 12.18L11.55 12.18Q12.52 12.18 13.15 11.59L13.15 11.59L13.15 11.59Q13.79 11.00 13.79 9.83L13.79 9.83L13.79 6.02ZM21.41 11.59L21.80 12.53L21.80 12.53Q21.10 13.16 19.99 13.16L19.99 13.16L19.99 13.16Q19.14 13.16 18.60 12.70L18.60 12.70L18.60 12.70Q18.06 12.24 18.05 11.28L18.05 11.28L18.05 6.99L16.65 6.99L16.65 6.02L18.05 6.02L18.05 4.34L19.17 4.03L19.17 6.02L21.76 6.02L21.76 6.99L19.17 6.99L19.17 11.09L19.17 11.09Q19.17 11.59 19.45 11.85L19.45 11.85L19.45 11.85Q19.74 12.11 20.22 12.11L20.22 12.11L20.22 12.11Q20.89 12.11 21.41 11.59L21.41 11.59ZM26.33 5.88L26.33 5.88Q27.92 5.88 28.82 6.85L28.82 6.85L28.82 6.85Q29.72 7.81 29.72 9.52L29.72 9.52L29.72 9.52Q29.72 11.23 28.82 12.19L28.82 12.19L28.82 12.19Q27.92 13.16 26.33 13.16L26.33 13.16L26.33 13.16Q24.75 13.16 23.85 12.19L23.85 12.19L23.85 12.19Q22.95 11.23 22.95 9.52L22.95 9.52L22.95 9.52Q22.95 7.81 23.85 6.85L23.85 6.85L23.85 6.85Q24.75 5.88 26.33 5.88L26.33 5.88ZM26.33 6.85L26.33 6.85Q25.27 6.85 24.67 7.56L24.67 7.56L24.67 7.56Q24.07 8.27 24.07 9.52L24.07 9.52L24.07 9.52Q24.07 10.77 24.67 11.48L24.67 11.48L24.67 11.48Q25.27 12.19 26.33 12.19L26.33 12.19L26.33 12.19Q27.40 12.19 28 11.48L28 11.48L28 11.48Q28.60 10.77 28.60 9.52L28.60 9.52L28.60 9.52Q28.60 8.27 28 7.56L28 7.56L28 7.56Q27.40 6.85 26.33 6.85L26.33 6.85ZM35.20 5.88L35.20 5.88Q35.70 5.88 35.97 6.02L35.97 6.02L35.74 7.11L35.74 7.11Q35.41 6.93 34.86 6.93L34.86 6.93L34.86 6.93Q34.41 6.93 33.98 7.19L33.98 7.19L33.98 7.19Q33.56 7.45 33.28 7.97L33.28 7.97L33.28 7.97Q33.01 8.50 33.01 9.24L33.01 9.24L33.01 13.02L31.89 13.02L31.89 6.02L32.80 6.02L32.96 7.17L32.96 7.17Q33.54 5.88 35.20 5.88L35.20 5.88ZM46.61 3.78L46.61 13.02L45.54 13.02L45.54 7.21L45.67 4.77L45.65 4.77L42.62 13.02L41.66 13.02L38.63 4.77L38.61 4.77L38.74 7.21L38.74 13.02L37.67 13.02L37.67 3.78L39.40 3.78L41.43 9.39L42.13 11.70L42.15 11.70L42.87 9.41L44.88 3.78L46.61 3.78ZM55.08 12.21L55.08 12.21Q55.36 12.21 55.64 12.14L55.64 12.14L55.57 13.02L55.57 13.02Q55.17 13.16 54.73 13.16L54.73 13.16L54.73 13.16Q54.18 13.16 53.86 12.92L53.86 12.92L53.86 12.92Q53.55 12.68 53.47 12.12L53.47 12.12L53.47 12.12Q53.14 12.61 52.52 12.89L52.52 12.89L52.52 12.89Q51.90 13.16 51.21 13.16L51.21 13.16L51.21 13.16Q50.18 13.16 49.50 12.68L49.50 12.68L49.50 12.68Q48.83 12.19 48.83 11.28L48.83 11.28L48.83 11.28Q48.83 10.49 49.53 9.90L49.53 9.90L49.53 9.90Q50.23 9.32 51.56 9.10L51.56 9.10L53.42 8.79L53.42 8.40L53.42 8.40Q53.42 7.70 52.99 7.28L52.99 7.28L52.99 7.28Q52.56 6.86 51.79 6.86L51.79 6.86L51.79 6.86Q51.09 6.86 50.57 7.20L50.57 7.20L50.57 7.20Q50.06 7.53 49.78 8.19L49.78 8.19L48.96 7.59L48.96 7.59Q49.24 6.80 50.00 6.34L50.00 6.34L50.00 6.34Q50.76 5.88 51.79 5.88L51.79 5.88L51.79 5.88Q53.03 5.88 53.79 6.48L53.79 6.48L53.79 6.48Q54.54 7.08 54.54 8.26L54.54 8.26L54.54 11.70L54.54 11.70Q54.54 11.96 54.67 12.08L54.67 12.08L54.67 12.08Q54.80 12.21 55.08 12.21L55.08 12.21ZM51.27 12.18L51.27 12.18Q52.15 12.18 52.79 11.76L52.79 11.76L52.79 11.76Q53.42 11.34 53.42 10.67L53.42 10.67L53.42 9.70L51.86 10.00L51.86 10.00Q50.92 10.16 50.46 10.48L50.46 10.48L50.46 10.48Q49.99 10.79 49.99 11.28L49.99 11.28L49.99 11.28Q49.99 11.72 50.33 11.95L50.33 11.95L50.33 11.95Q50.67 12.18 51.27 12.18L51.27 12.18ZM62.96 13.02L61.59 13.02L59.65 10.32L57.67 13.02L56.36 13.02L59.05 9.49L56.53 6.02L57.93 6.02L59.78 8.61L61.60 6.02L62.92 6.02L60.38 9.45L62.96 13.02Z"></path></g><!----><g data-v-423bf9ae="" id="6638df79-fc2d-4288-b21c-4da1299ff0d9" transform="matrix(1.666546106338501,0,0,1.666546106338501,-2.346836566925049,-38.33055877685547)" stroke="none" fill="black"><path style="text-indent:0;text-transform:none;block-progression:tb" d="M49.875 23.002a3 3 0 0 0-.938.187l-45 17a3 3 0 0 0 0 5.625L9 47.72v9.625c-.624.706-1 1.641-1 2.657a4 4 0 0 0 8 0c0-1.016-.377-1.951-1-2.657v-7.343l4 1.5v12.5c0 2.538 1.549 4.272 3.313 5.687 1.763 1.415 4.046 2.62 6.78 3.688 5.47 2.136 12.776 3.625 20.907 3.625 8.13 0 15.436-1.489 20.906-3.625 2.735-1.069 5.018-2.273 6.781-3.688C79.451 68.274 81 66.54 81 64.002v-12.5l15.063-5.688a3 3 0 0 0 0-5.625l-45-17a3 3 0 0 0-1.188-.187zM50 29.22l36.5 13.782L50 56.782l-36.5-13.78L50 29.22zM25 53.783l23.938 9.031a3 3 0 0 0 2.124 0L75 53.783v10.219c0-.445 0 .147-1.063 1-1.062.852-2.892 1.872-5.218 2.78C64.067 69.6 57.38 71.003 50 71.003c-7.381 0-14.067-1.402-18.719-3.22-2.326-.908-4.156-1.928-5.219-2.78C25 64.149 25 63.557 25 64.002v-10.22z" overflow="visible" color="#000"></path></g><!----></svg>